Format : AVI
Format/Info : Audio Video Interleave
File size : 697 MiB
Duration : 1h 32mn
Overall bit rate : 1 052 Kbps
Writing application : VirtualDubMod 1.5.10.2 (build 2542/release)
Writing library : VirtualDubMod build 2542/release

Video
ID : 0
Format : MPEG-4 Visual
Format profile : Advanced Simple@L5
Format settings, BVOP : Yes
Format settings, QPel : No
Format settings, GMC : No warppoints
Format settings, Matrix : Default (MPEG)
Muxing mode : Packed bitstream
Codec ID : XVID
Codec ID/Hint : XviD
Duration : 1h 32mn
Bit rate : 893 Kbps
Width : 640 pixels
Height : 352 pixels
Display aspect ratio : 16:9
Frame rate : 23.976 fps
Color space : YUV
Chroma subsampling : 4:2:0
Bit depth : 8 bits
Scan type : Progressive
Compression mode : Lossy
Bits/(Pixel*Frame) : 0.165
Stream size : 592 MiB (85%)
Writing library : XviD 1.2.1 (UTC 2008-12-04)

Audio
ID : 1
Format : MPEG Audio
Format version : Version 1
Format profile : Layer 3
Mode : Joint stereo
Mode extension : MS Stereo
Codec ID : 55
Codec ID/Hint : MP3
Duration : 1h 32mn
Bit rate mode : Variable
Bit rate : 146 Kbps
Minimum bit rate : 32.0 Kbps
Channel(s) : 2 channels
Sampling rate : 48.0 KHz
Compression mode : Lossy
Stream size : 96.6 MiB (14%)
Alignment : Aligned on interleaves
Interleave, duration : 24 ms (0.58 video frame)
Interleave, preload duration : 126 ms
Writing library : LAME3.98r

Imdb Link:http://www.imdb.com/title/tt1564585/



Eric Balfour 
Scottie Thompson 
Brittany Daniel 
Crystal Reed 
Neil Hopkins 
David Zayas 
Donald Faison 
Robin Gammell 
Tanya Newbould 
J. Paul Boehmer 
Phet Mahathongdy 
Byron McIntyre 


Strange lights descend on the city of Los Angeles, drawing people outside like moths to a flame where an extraterrestrial force threatens to swallow the entire human population off the face of the Earth.


 
http://www.leetleech.org/images/42974323755483842934.jpg 
http://www.leetleech.org/images/80606843368510334912.jpeg 
http://www.leetleech.org/images/94050814808397917512.jpeg 
http://www.leetleech.org/images/64740764490865576352.jpeg